# Aspose.3D Wavefront OBJ Exporter
# Copyright 2004-2023 Aspose Pty Ltd.
# File created: 07/11/2023 13:24:34

mtllib material.lib

#
# object Chicken_02___Default_0
#

v -59.99998253845707552 -49.99998581393825248 -119.99997572111020368
v -59.99998253845707552 69.99999129787815376 -119.99995617063170528
v 59.99999457335933072 69.99999129787815376 -119.99995617063170528
v 59.99999457335933072 -49.99998581393825248 -119.99997572111020368
v -59.99998253845707552 -50.00001188124290507 39.99999376131167136
v 59.99999457335933072 -50.00001188124290507 39.99999376131167136
v 59.99999457335933072 69.99996523057350832 40.00001331179016972
v -59.99998253845707552 69.99996523057350832 40.00001331179016972
v -59.99998253845707552 -49.99998581393825248 -119.99997572111020368
v 59.99999457335933072 -49.99998581393825248 -119.99997572111020368
v 59.99999457335933072 -50.00001188124290507 39.99999376131167136
v -59.99998253845707552 -50.00001188124290507 39.99999376131167136
v 59.99999457335933072 -49.99998581393825248 -119.99997572111020368
v 59.99999457335933072 69.99999129787815376 -119.99995617063170528
v 59.99999457335933072 69.99996523057350832 40.00001331179016972
v 59.99999457335933072 -50.00001188124290507 39.99999376131167136
v 59.99999457335933072 69.99999129787815376 -119.99995617063170528
v -59.99998253845707552 69.99999129787815376 -119.99995617063170528
v -59.99998253845707552 69.99996523057350832 40.00001331179016972
v 59.99999457335933072 69.99996523057350832 40.00001331179016972
v -59.99998253845707552 69.99999129787815376 -119.99995617063170528
v -59.99998253845707552 -49.99998581393825248 -119.99997572111020368
v -59.99998253845707552 -50.00001188124290507 39.99999376131167136
v -59.99998253845707552 69.99996523057350832 40.00001331179016972
v 59.99998980498865824 -9.99999670174431008 -99.99998255572265296
v 59.99998980498865824 69.99998803946662912 -99.999969522070316
v 79.99998599029139264 69.99998803946662912 -99.999969522070316
v 79.99998599029139264 -9.99999670174431008 -99.99998255572265296
v 59.99998980498865824 -10.00001625222280132 19.99999455609376752
v 79.99998599029139264 -10.00001625222280132 19.99999455609376752
v 79.99998599029139264 69.99996848898814512 20.00000758974609027
v 59.99998980498865824 69.99996848898814512 20.00000758974609027
v 59.99998980498865824 -9.99999670174431008 -99.99998255572265296
v 79.99998599029139264 -9.99999670174431008 -99.99998255572265296
v 79.99998599029139264 -10.00001625222280132 19.99999455609376752
v 59.99998980498865824 -10.00001625222280132 19.99999455609376752
v 79.99998599029139264 -9.99999670174431008 -99.99998255572265296
v 79.99998599029139264 69.99998803946662912 -99.999969522070316
v 79.99998599029139264 69.99996848898814512 20.00000758974609027
v 79.99998599029139264 -10.00001625222280132 19.99999455609376752
v 79.99998599029139264 69.99998803946662912 -99.999969522070316
v 59.99998980498865824 69.99998803946662912 -99.999969522070316
v 59.99998980498865824 69.99996848898814512 20.00000758974609027
v 79.99998599029139264 69.99996848898814512 20.00000758974609027
v 59.99998980498865824 69.99998803946662912 -99.999969522070316
v 59.99998980498865824 -9.99999670174431008 -99.99998255572265296
v 59.99998980498865824 -10.00001625222280132 19.99999455609376752
v 59.99998980498865824 69.99996848898814512 20.00000758974609027
v -19.999997320407612 29.99999169495593072 99.99997627739416832
v 19.9999962422905248 29.99999169495593072 99.99997627739416832
v 19.9999962422905248 69.99998406556140656 99.99998279422034384
v -19.999997320407612 69.99998406556140656 99.99998279422034384
v -19.999997320407612 29.99999495336901136 79.99998009209143392
v 19.9999962422905248 29.99999495336901136 79.99998009209143392
v 19.9999962422905248 29.99999169495593072 99.99997627739416832
v -19.999997320407612 29.99999169495593072 99.99997627739416832
v 19.9999962422905248 29.99999495336901136 79.99998009209143392
v 19.9999962422905248 69.99998732397448016 79.99998660891760944
v 19.9999962422905248 69.99998406556140656 99.99998279422034384
v 19.9999962422905248 29.99999169495593072 99.99997627739416832
v -19.999997320407612 69.99998732397448016 79.99998660891760944
v -19.999997320407612 29.99999495336901136 79.99998009209143392
v -19.999997320407612 29.99999169495593072 99.99997627739416832
v -19.999997320407612 69.99998406556140656 99.99998279422034384
v -39.99999112152501376 69.99998732397448016 79.99998660891760944
v -39.99999112152501376 109.9999796945799488 79.99999312574375664
v 39.99999123550058752 109.9999796945799488 79.99999312574375664
v 39.99999123550058752 69.99998732397448016 79.99998660891760944
v -39.99999112152501376 69.99998080714831872 119.99997897952307824
v 39.99999123550058752 69.99998080714831872 119.99997897952307824
v 39.99999123550058752 109.99997317775378752 119.99998549634922544
v -39.99999112152501376 109.99997317775378752 119.99998549634922544
v -39.99999112152501376 69.99998732397448016 79.99998660891760944
v 39.99999123550058752 69.99998732397448016 79.99998660891760944
v 39.99999123550058752 69.99998080714831872 119.99997897952307824
v -39.99999112152501376 69.99998080714831872 119.99997897952307824
v 39.99999123550058752 69.99998732397448016 79.99998660891760944
v 39.99999123550058752 109.9999796945799488 79.99999312574375664
v 39.99999123550058752 109.99997317775378752 119.99998549634922544
v 39.99999123550058752 69.99998080714831872 119.99997897952307824
v 39.99999123550058752 109.9999796945799488 79.99999312574375664
v -39.99999112152501376 109.9999796945799488 79.99999312574375664
v -39.99999112152501376 109.99997317775378752 119.99998549634922544
v 39.99999123550058752 109.99997317775378752 119.99998549634922544
v -39.99999112152501376 109.9999796945799488 79.99999312574375664
v -39.99999112152501376 69.99998732397448016 79.99998660891760944
v -39.99999112152501376 69.99998080714831872 119.99997897952307824
v -39.99999112152501376 109.99997317775378752 119.99998549634922544
v -39.99999112152501376 29.99999519186690832 19.999991536181696
v -39.99999112152501376 149.99997230368330752 20.00001108666016591
v 39.99999123550058752 149.99997230368330752 20.00001108666016591
v 39.99999123550058752 29.99999519186690832 19.999991536181696
v -39.99999112152501376 29.99998541662766624 79.9999800920898992
v 39.99999123550058752 29.99998541662766624 79.9999800920898992
v 39.99999123550058752 149.99996252844405824 79.99999964256836912
v -39.99999112152501376 149.99996252844405824 79.99999964256836912
v -39.99999112152501376 29.99999519186690832 19.999991536181696
v 39.99999123550058752 29.99999519186690832 19.999991536181696
v 39.99999123550058752 29.99998541662766624 79.9999800920898992
v -39.99999112152501376 29.99998541662766624 79.9999800920898992
v 39.99999123550058752 29.99999519186690832 19.999991536181696
v 39.99999123550058752 149.99997230368330752 20.00001108666016591
v 39.99999123550058752 149.99996252844405824 79.99999964256836912
v 39.99999123550058752 29.99998541662766624 79.9999800920898992
v 39.99999123550058752 149.99997230368330752 20.00001108666016591
v -39.99999112152501376 149.99997230368330752 20.00001108666016591
v -39.99999112152501376 149.99996252844405824 79.99999964256836912
v 39.99999123550058752 149.99996252844405824 79.99999964256836912
v -39.99999112152501376 149.99997230368330752 20.00001108666016591
v -39.99999112152501376 29.99999519186690832 19.999991536181696
v -39.99999112152501376 29.99998541662766624 79.9999800920898992
v -39.99999112152501376 149.99996252844405824 79.99999964256836912
v -59.999987306827748 -9.99999670174431008 -99.99998255572265296
v -79.99997872375980992 -9.99999670174431008 -99.99998255572265296
v -79.99997872375980992 69.99998803946662912 -99.999969522070316
v -59.999987306827748 69.99998803946662912 -99.999969522070316
v -59.999987306827748 -10.00001625222280132 19.99999455609376752
v -59.999987306827748 69.99996848898814512 20.00000758974609027
v -79.99997872375980992 69.99996848898814512 20.00000758974609027
v -79.99997872375980992 -10.00001625222280132 19.99999455609376752
v -59.999987306827748 -9.99999670174431008 -99.99998255572265296
v -59.999987306827748 -10.00001625222280132 19.99999455609376752
v -79.99997872375980992 -10.00001625222280132 19.99999455609376752
v -79.99997872375980992 -9.99999670174431008 -99.99998255572265296
v -79.99997872375980992 -9.99999670174431008 -99.99998255572265296
v -79.99997872375980992 -10.00001625222280132 19.99999455609376752
v -79.99997872375980992 69.99996848898814512 20.00000758974609027
v -79.99997872375980992 69.99998803946662912 -99.999969522070316
v -79.99997872375980992 69.99998803946662912 -99.999969522070316
v -79.99997872375980992 69.99996848898814512 20.00000758974609027
v -59.999987306827748 69.99996848898814512 20.00000758974609027
v -59.999987306827748 69.99998803946662912 -99.999969522070316
v -59.999987306827748 69.99998803946662912 -99.999969522070316
v -59.999987306827748 69.99996848898814512 20.00000758974609027
v -59.999987306827748 -10.00001625222280132 19.99999455609376752
v -59.999987306827748 -9.99999670174431008 -99.99998255572265296
v -39.99999588989568624 -49.99999884759213136 -39.99998144315792096
v -39.99999588989568624 -149.99997977410581024 -39.99999773522333152
v -20.00000208877828455 -149.99997977410581024 -39.99999773522333152
v -20.00000208877828455 -49.99999884759213136 -39.99998144315792096
v -39.99999588989568624 -149.99997977410581024 -39.99999773522333152
v -39.99999588989568624 -149.99997675419217552 4.172125045442954E-06
v -20.00000208877828455 -149.99997675419217552 4.172125045442954E-06
v -20.00000208877828455 -149.99997977410581024 -39.99999773522333152
v -39.99999588989568624 -149.99997977410581024 -39.99999773522333152
v -59.99999207519842064 -149.99997977410581024 -39.99999773522333152
v -59.99999207519842064 -149.99996721745083056 4.172126594426118E-06
v -39.99999588989568624 -149.99997675419217552 4.172125045442954E-06
v -20.00000208877828455 -149.99997675419217552 4.172125045442954E-06
v -1.135104877858983E-06 -149.99996721745083056 4.172126594426118E-06
v -1.135104877858983E-06 -149.99997977410581024 -39.99999773522333152
v -20.00000208877828455 -149.99997977410581024 -39.99999773522333152
v -39.99999588989568624 -149.99997675419217552 4.172125045442954E-06
v -39.99999588989568624 -149.99997047586390416 20.0000003574293288
v -20.00000208877828455 -149.99997047586390416 20.0000003574293288
v -20.00000208877828455 -149.99997675419217552 4.172125045442954E-06
v 19.99999981856852928 -149.99997977410581024 -39.99999773522333152
v 39.99999600387126016 -149.99997977410581024 -39.99999773522333152
v 39.99999600387126016 -49.99999884759213136 -39.99998144315792096
v 19.99999981856852928 -49.99999884759213136 -39.99998144315792096
v 39.99999600387126016 -149.99997977410581024 -39.99999773522333152
v 19.99999981856852928 -149.99997977410581024 -39.99999773522333152
v 19.99999981856852928 -149.99997675419217552 4.172125045442954E-06
v 39.99999600387126016 -149.99997675419217552 4.172125045442954E-06
v 39.99999600387126016 -149.99997977410581024 -39.99999773522333152
v 39.99999600387126016 -149.99997675419217552 4.172125045442954E-06
v 59.9999850366179856 -149.99996721745083056 4.172126594426118E-06
v 59.9999850366179856 -149.99997977410581024 -39.99999773522333152
v 19.99999981856852928 -149.99997675419217552 4.172125045442954E-06
v 19.99999981856852928 -149.99997977410581024 -39.99999773522333152
v -1.135104877858983E-06 -149.99997977410581024 -39.99999773522333152
v -1.135104877858983E-06 -149.99996721745083056 4.172126594426118E-06
v 39.99999600387126016 -149.99997675419217552 4.172125045442954E-06
v 19.99999981856852928 -149.99997675419217552 4.172125045442954E-06
v 19.99999981856852928 -149.99997047586390416 20.0000003574293288
v 39.99999600387126016 -149.99997047586390416 20.0000003574293288
# 176 vertices

vn 0 1.6292068516498897E-07 -0.99999999999998672
vn 0 1.6292068516498897E-07 -0.99999999999998672
vn 0 1.6292068516498897E-07 -0.99999999999998672
vn 0 1.6292068516498897E-07 -0.99999999999998672
vn 0 -1.6292068516498897E-07 0.99999999999998672
vn 0 -1.6292068516498897E-07 0.99999999999998672
vn 0 -1.6292068516498897E-07 0.99999999999998672
vn 0 -1.6292068516498897E-07 0.99999999999998672
vn 0 -0.99999999999998672 -1.6292068516498897E-07
vn 0 -0.99999999999998672 -1.6292068516498897E-07
vn 0 -0.99999999999998672 -1.6292068516498897E-07
vn 0 -0.99999999999998672 -1.6292068516498897E-07
vn 1 0 0
vn 1 0 0
vn 1 0 0
vn 1 0 0
vn 0 0.99999999999998672 1.6292068516498897E-07
vn 0 0.99999999999998672 1.6292068516498897E-07
vn 0 0.99999999999998672 1.6292068516498897E-07
vn 0 0.99999999999998672 1.6292068516498897E-07
vn -1 0 0
vn -1 0 0
vn -1 0 0
vn -1 0 0
vn 0 1.6292068516498897E-07 -0.99999999999998672
vn 0 1.6292068516498897E-07 -0.99999999999998672
vn 0 1.6292068516498897E-07 -0.99999999999998672
vn 0 1.6292068516498897E-07 -0.99999999999998672
vn 0 -1.6292068516498897E-07 0.99999999999998672
vn 0 -1.6292068516498897E-07 0.99999999999998672
vn 0 -1.6292068516498897E-07 0.99999999999998672
vn 0 -1.6292068516498897E-07 0.99999999999998672
vn 0 -0.99999999999998672 -1.6292068516498897E-07
vn 0 -0.99999999999998672 -1.6292068516498897E-07
vn 0 -0.99999999999998672 -1.6292068516498897E-07
vn 0 -0.99999999999998672 -1.6292068516498897E-07
vn 1 0 0
vn 1 0 0
vn 1 0 0
vn 1 0 0
vn 0 0.99999999999998672 1.6292068516498897E-07
vn 0 0.99999999999998672 1.6292068516498897E-07
vn 0 0.99999999999998672 1.6292068516498897E-07
vn 0 0.99999999999998672 1.6292068516498897E-07
vn -1 0 0
vn -1 0 0
vn -1 0 0
vn -1 0 0
vn 0 -1.6292068516498897E-07 0.99999999999998672
vn 0 -1.6292068516498897E-07 0.99999999999998672
vn 0 -1.6292068516498897E-07 0.99999999999998672
vn 0 -1.6292068516498897E-07 0.99999999999998672
vn 0 -0.99999999999998672 -1.6292068516498897E-07
vn 0 -0.99999999999998672 -1.6292068516498897E-07
vn 0 -0.99999999999998672 -1.6292068516498897E-07
vn 0 -0.99999999999998672 -1.6292068516498897E-07
vn 1 0 0
vn 1 0 0
vn 1 0 0
vn 1 0 0
vn -1 0 0
vn -1 0 0
vn -1 0 0
vn -1 0 0
vn 0 1.6292068516498897E-07 -0.99999999999998672
vn 0 1.6292068516498897E-07 -0.99999999999998672
vn 0 1.6292068516498897E-07 -0.99999999999998672
vn 0 1.6292068516498897E-07 -0.99999999999998672
vn 0 -1.6292068516498897E-07 0.99999999999998672
vn 0 -1.6292068516498897E-07 0.99999999999998672
vn 0 -1.6292068516498897E-07 0.99999999999998672
vn 0 -1.6292068516498897E-07 0.99999999999998672
vn 0 -0.99999999999998672 -1.6292068516498897E-07
vn 0 -0.99999999999998672 -1.6292068516498897E-07
vn 0 -0.99999999999998672 -1.6292068516498897E-07
vn 0 -0.99999999999998672 -1.6292068516498897E-07
vn 1 0 0
vn 1 0 0
vn 1 0 0
vn 1 0 0
vn 0 0.99999999999998672 1.6292068516498897E-07
vn 0 0.99999999999998672 1.6292068516498897E-07
vn 0 0.99999999999998672 1.6292068516498897E-07
vn 0 0.99999999999998672 1.6292068516498897E-07
vn -1 0 0
vn -1 0 0
vn -1 0 0
vn -1 0 0
vn 0 1.6292068516498897E-07 -0.99999999999998672
vn 0 1.6292068516498897E-07 -0.99999999999998672
vn 0 1.6292068516498897E-07 -0.99999999999998672
vn 0 1.6292068516498897E-07 -0.99999999999998672
vn 0 -1.6292068516498897E-07 0.99999999999998672
vn 0 -1.6292068516498897E-07 0.99999999999998672
vn 0 -1.6292068516498897E-07 0.99999999999998672
vn 0 -1.6292068516498897E-07 0.99999999999998672
vn 0 -0.99999999999998672 -1.6292068516498897E-07
vn 0 -0.99999999999998672 -1.6292068516498897E-07
vn 0 -0.99999999999998672 -1.6292068516498897E-07
vn 0 -0.99999999999998672 -1.6292068516498897E-07
vn 1 0 0
vn 1 0 0
vn 1 0 0
vn 1 0 0
vn 0 0.99999999999998672 1.6292068516498897E-07
vn 0 0.99999999999998672 1.6292068516498897E-07
vn 0 0.99999999999998672 1.6292068516498897E-07
vn 0 0.99999999999998672 1.6292068516498897E-07
vn -1 0 0
vn -1 0 0
vn -1 0 0
vn -1 0 0
vn 0 1.6292068516498897E-07 -0.99999999999998672
vn 0 1.6292068516498897E-07 -0.99999999999998672
vn 0 1.6292068516498897E-07 -0.99999999999998672
vn 0 1.6292068516498897E-07 -0.99999999999998672
vn 0 -1.6292068516498897E-07 0.99999999999998672
vn 0 -1.6292068516498897E-07 0.99999999999998672
vn 0 -1.6292068516498897E-07 0.99999999999998672
vn 0 -1.6292068516498897E-07 0.99999999999998672
vn 0 -0.99999999999998672 -1.6292068516498897E-07
vn 0 -0.99999999999998672 -1.6292068516498897E-07
vn 0 -0.99999999999998672 -1.6292068516498897E-07
vn 0 -0.99999999999998672 -1.6292068516498897E-07
vn -1 0 0
vn -1 0 0
vn -1 0 0
vn -1 0 0
vn 0 0.99999999999998672 1.6292068516498897E-07
vn 0 0.99999999999998672 1.6292068516498897E-07
vn 0 0.99999999999998672 1.6292068516498897E-07
vn 0 0.99999999999998672 1.6292068516498897E-07
vn 1 0 0
vn 1 0 0
vn 1 0 0
vn 1 0 0
vn 0 -1.6292068516498897E-07 0.99999999999998672
vn 0 -1.6292068516498897E-07 0.99999999999998672
vn 0 -1.6292068516498897E-07 0.99999999999998672
vn 0 -1.6292068516498897E-07 0.99999999999998672
vn 0 1.00000000000002553 -7.549783709315149E-08
vn 0 1.00000000000002553 -7.549783709315149E-08
vn 0 1.00000000000002553 -7.549783709315149E-08
vn 0 1.00000000000002553 -7.549783709315149E-08
vn 2.384185791015625E-07 1.00000000000004507 -1.9470709822222175E-07
vn 2.384185791015625E-07 1.00000000000004507 -1.9470709822222175E-07
vn 2.384185791015625E-07 1.00000000000004507 -1.9470709822222175E-07
vn 2.384185791015625E-07 1.00000000000004507 -1.9470709822222175E-07
vn -2.3841852225814364E-07 1.00000000000004507 -1.9470706980051232E-07
vn -2.3841852225814364E-07 1.00000000000004507 -1.9470706980051232E-07
vn -2.3841852225814364E-07 1.00000000000004507 -1.9470706980051232E-07
vn -2.3841852225814364E-07 1.00000000000004507 -1.9470706980051232E-07
vn 0 1.00000000000006439 -3.1391647303812973E-07
vn 0 1.00000000000006439 -3.1391647303812973E-07
vn 0 1.00000000000006439 -3.1391647303812973E-07
vn 0 1.00000000000006439 -3.1391647303812973E-07
vn 0 -1.6292068516498897E-07 0.99999999999998672
vn 0 -1.6292068516498897E-07 0.99999999999998672
vn 0 -1.6292068516498897E-07 0.99999999999998672
vn 0 -1.6292068516498897E-07 0.99999999999998672
vn 0 1.00000000000002553 -7.549783709315149E-08
vn 0 1.00000000000002553 -7.549783709315149E-08
vn 0 1.00000000000002553 -7.549783709315149E-08
vn 0 1.00000000000002553 -7.549783709315149E-08
vn -2.384186643666908E-07 1.00000000000004507 -1.9470709822222175E-07
vn -2.384186643666908E-07 1.00000000000004507 -1.9470709822222175E-07
vn -2.384186643666908E-07 1.00000000000004507 -1.9470709822222175E-07
vn -2.384186643666908E-07 1.00000000000004507 -1.9470709822222175E-07
vn 2.3841852225814364E-07 1.00000000000004507 -1.9470709822222175E-07
vn 2.3841852225814364E-07 1.00000000000004507 -1.9470709822222175E-07
vn 2.3841852225814364E-07 1.00000000000004507 -1.9470709822222175E-07
vn 2.3841852225814364E-07 1.00000000000004507 -1.9470709822222175E-07
vn 0 1.00000000000006439 -3.1391647303812973E-07
vn 0 1.00000000000006439 -3.1391647303812973E-07
vn 0 1.00000000000006439 -3.1391647303812973E-07
vn 0 1.00000000000006439 -3.1391647303812973E-07
# 176 vertex normals

g Chicken_02___Default_0
usemtl _2___Default
s 1
f 1//1 2//2 3//3
f 1//1 3//3 4//4
f 5//5 6//6 7//7
f 5//5 7//7 8//8
f 9//9 10//10 11//11
f 9//9 11//11 12//12
f 13//13 14//14 15//15
f 13//13 15//15 16//16
f 17//17 18//18 19//19
f 17//17 19//19 20//20
f 21//21 22//22 23//23
f 21//21 23//23 24//24
f 25//25 26//26 27//27
f 25//25 27//27 28//28
f 29//29 30//30 31//31
f 29//29 31//31 32//32
f 33//33 34//34 35//35
f 33//33 35//35 36//36
f 37//37 38//38 39//39
f 37//37 39//39 40//40
f 41//41 42//42 43//43
f 41//41 43//43 44//44
f 45//45 46//46 47//47
f 45//45 47//47 48//48
f 49//49 50//50 51//51
f 49//49 51//51 52//52
f 53//53 54//54 55//55
f 53//53 55//55 56//56
f 57//57 58//58 59//59
f 57//57 59//59 60//60
f 61//61 62//62 63//63
f 61//61 63//63 64//64
f 65//65 66//66 67//67
f 65//65 67//67 68//68
f 69//69 70//70 71//71
f 69//69 71//71 72//72
f 73//73 74//74 75//75
f 73//73 75//75 76//76
f 77//77 78//78 79//79
f 77//77 79//79 80//80
f 81//81 82//82 83//83
f 81//81 83//83 84//84
f 85//85 86//86 87//87
f 85//85 87//87 88//88
f 89//89 90//90 91//91
f 89//89 91//91 92//92
f 93//93 94//94 95//95
f 93//93 95//95 96//96
f 97//97 98//98 99//99
f 97//97 99//99 100//100
f 101//101 102//102 103//103
f 101//101 103//103 104//104
f 105//105 106//106 107//107
f 105//105 107//107 108//108
f 109//109 110//110 111//111
f 109//109 111//111 112//112
f 113//113 114//114 115//115
f 113//113 115//115 116//116
f 117//117 118//118 119//119
f 117//117 119//119 120//120
f 121//121 122//122 123//123
f 121//121 123//123 124//124
f 125//125 126//126 127//127
f 125//125 127//127 128//128
f 129//129 130//130 131//131
f 129//129 131//131 132//132
f 133//133 134//134 135//135
f 133//133 135//135 136//136
f 137//137 138//138 139//139
f 137//137 139//139 140//140
f 141//141 142//142 143//143
f 141//141 143//143 144//144
f 145//145 146//146 147//147
f 145//145 147//147 148//148
f 149//149 150//150 151//151
f 149//149 151//151 152//152
f 153//153 154//154 155//155
f 153//153 155//155 156//156
f 157//157 158//158 159//159
f 157//157 159//159 160//160
f 161//161 162//162 163//163
f 161//161 163//163 164//164
f 165//165 166//166 167//167
f 165//165 167//167 168//168
f 169//169 170//170 171//171
f 169//169 171//171 172//172
f 173//173 174//174 175//175
f 173//173 175//175 176//176
#88 polygons

