# Aspose.3D Wavefront OBJ Exporter
# Copyright 2004-2023 Aspose Pty Ltd.
# File created: 06/30/2023 08:09:06

mtllib material.lib

#
# object Pig_02___Default_0
#

v -74.9999923706054688 8.940695715220503E-06 206.24997901916503908
v -74.9999923706054688 8.940695781833877E-06 56.24999427795410156
v 74.9999923706054688 8.940695781833877E-06 56.24999427795410156
v 74.9999923706054688 8.940695715220503E-06 206.24997901916503908
v -74.9999923706054688 149.99999368190665904 206.24997901916509592
v 74.9999923706054688 149.99999368190665904 206.24997901916509592
v 74.9999923706054688 149.99999368190671584 56.2499942779541726
v -74.9999923706054688 149.99999368190671584 56.2499942779541726
v -74.9999923706054688 8.940695715220503E-06 206.24997901916503908
v 74.9999923706054688 8.940695715220503E-06 206.24997901916503908
v 74.9999923706054688 149.99999368190665904 206.24997901916509592
v -74.9999923706054688 149.99999368190665904 206.24997901916509592
v 74.9999923706054688 8.940695715220503E-06 206.24997901916503908
v 74.9999923706054688 8.940695781833877E-06 56.24999427795410156
v 74.9999923706054688 149.99999368190671584 56.2499942779541726
v 74.9999923706054688 149.99999368190665904 206.24997901916509592
v 74.9999923706054688 8.940695781833877E-06 56.24999427795410156
v -74.9999923706054688 8.940695781833877E-06 56.24999427795410156
v -74.9999923706054688 149.99999368190671584 56.2499942779541726
v 74.9999923706054688 149.99999368190671584 56.2499942779541726
v -74.9999923706054688 8.940695781833877E-06 56.24999427795410156
v -74.9999923706054688 8.940695715220503E-06 206.24997901916503908
v -74.9999923706054688 149.99999368190665904 206.24997901916509592
v -74.9999923706054688 149.99999368190671584 56.2499942779541726
v -93.749990463256836 -37.49998724460697016 93.74999046325682176
v -93.749990463256836 -37.4999872446068352 -206.24997901916503908
v 93.749990463256836 -37.4999872446068352 -206.24997901916503908
v 93.749990463256836 -37.49998724460697016 93.74999046325682176
v -93.749990463256836 112.49999749660396728 93.7499904632568928
v 93.749990463256836 112.49999749660396728 93.7499904632568928
v 93.749990463256836 112.49999749660410944 -206.2499790191649822
v -93.749990463256836 112.49999749660410944 -206.2499790191649822
v -93.749990463256836 -37.49998724460697016 93.74999046325682176
v 93.749990463256836 -37.49998724460697016 93.74999046325682176
v 93.749990463256836 112.49999749660396728 93.7499904632568928
v -93.749990463256836 112.49999749660396728 93.7499904632568928
v 93.749990463256836 -37.49998724460697016 93.74999046325682176
v 93.749990463256836 -37.4999872446068352 -206.24997901916503908
v 93.749990463256836 112.49999749660410944 -206.2499790191649822
v 93.749990463256836 112.49999749660396728 93.7499904632568928
v 93.749990463256836 -37.4999872446068352 -206.24997901916503908
v -93.749990463256836 -37.4999872446068352 -206.24997901916503908
v -93.749990463256836 112.49999749660410944 -206.2499790191649822
v 93.749990463256836 112.49999749660410944 -206.2499790191649822
v -93.749990463256836 -37.4999872446068352 -206.24997901916503908
v -93.749990463256836 -37.49998724460697016 93.74999046325682176
v -93.749990463256836 112.49999749660396728 93.7499904632568928
v -93.749990463256836 112.49999749660410944 -206.2499790191649822
v -37.4999961853027344 18.75000479817312288 224.99997711181640624
v 37.4999961853027344 18.75000479817312288 224.99997711181640624
v 37.4999961853027344 75.00000131130117608 224.99997711181643472
v -37.4999961853027344 75.00000131130117608 224.99997711181643472
v -37.4999961853027344 18.75000703334708512 206.24997454881713564
v 37.4999961853027344 18.75000703334708512 206.24997454881713564
v 37.4999961853027344 18.75000479817312288 224.99997711181640624
v -37.4999961853027344 18.75000479817312288 224.99997711181640624
v 37.4999961853027344 18.75000703334708512 206.24997454881713564
v 37.4999961853027344 75.00000131130119029 206.24998795986087428
v 37.4999961853027344 75.00000131130117608 224.99997711181643472
v 37.4999961853027344 18.75000479817312288 224.99997711181640624
v 37.4999961853027344 75.00000131130119029 206.24998795986087428
v -37.4999961853027344 75.00000131130119029 206.24998795986087428
v -37.4999961853027344 75.00000131130117608 224.99997711181643472
v 37.4999961853027344 75.00000131130117608 224.99997711181643472
v -37.4999961853027344 75.00000131130119029 206.24998795986087428
v -37.4999961853027344 18.75000703334708512 206.24997454881713564
v -37.4999961853027344 18.75000479817312288 224.99997711181640624
v -37.4999961853027344 75.00000131130117608 224.99997711181643472
v -93.749990463256836 -149.99997580051513072 -8.94069586365731E-06
v -93.749990463256836 -37.4999872446069276 8.940695778392183E-06
v -18.7499980926513672 -37.4999872446069276 8.940695778392183E-06
v -18.7499980926513672 -149.99997580051513072 -8.94069586365731E-06
v -93.749990463256836 -149.9999936819067728 74.99998342990960512
v -18.7499980926513672 -149.9999936819067728 74.99998342990960512
v -18.7499980926513672 -37.50000065565066624 75.00000131130126135
v -93.749990463256836 -37.50000065565066624 75.00000131130126135
v -93.749990463256836 -149.99997580051513072 -8.94069586365731E-06
v -18.7499980926513672 -149.99997580051513072 -8.94069586365731E-06
v -18.7499980926513672 -149.9999936819067728 74.99998342990960512
v -93.749990463256836 -149.9999936819067728 74.99998342990960512
v -18.7499980926513672 -149.99997580051513072 -8.94069586365731E-06
v -18.7499980926513672 -37.4999872446069276 8.940695778392183E-06
v -18.7499980926513672 -37.50000065565066624 75.00000131130126135
v -18.7499980926513672 -149.9999936819067728 74.99998342990960512
v -18.7499980926513672 -37.4999872446069276 8.940695778392183E-06
v -93.749990463256836 -37.4999872446069276 8.940695778392183E-06
v -93.749990463256836 -37.50000065565066624 75.00000131130126135
v -18.7499980926513672 -37.50000065565066624 75.00000131130126135
v -93.749990463256836 -37.4999872446069276 8.940695778392183E-06
v -93.749990463256836 -149.99997580051513072 -8.94069586365731E-06
v -93.749990463256836 -149.9999936819067728 74.99998342990960512
v -93.749990463256836 -37.50000065565066624 75.00000131130126135
v 18.7499980926513672 -149.99997580051513072 -8.94069586365731E-06
v 18.7499980926513672 -37.4999872446069276 8.940695778392183E-06
v 93.749990463256836 -37.4999872446069276 8.940695778392183E-06
v 93.749990463256836 -149.99997580051513072 -8.94069586365731E-06
v 18.7499980926513672 -149.9999936819067728 74.99998342990960512
v 93.749990463256836 -149.9999936819067728 74.99998342990960512
v 93.749990463256836 -37.50000065565066624 75.00000131130126135
v 18.7499980926513672 -37.50000065565066624 75.00000131130126135
v 18.7499980926513672 -149.99997580051513072 -8.94069586365731E-06
v 93.749990463256836 -149.99997580051513072 -8.94069586365731E-06
v 93.749990463256836 -149.9999936819067728 74.99998342990960512
v 18.7499980926513672 -149.9999936819067728 74.99998342990960512
v 93.749990463256836 -149.99997580051513072 -8.94069586365731E-06
v 93.749990463256836 -37.4999872446069276 8.940695778392183E-06
v 93.749990463256836 -37.50000065565066624 75.00000131130126135
v 93.749990463256836 -149.9999936819067728 74.99998342990960512
v 93.749990463256836 -37.4999872446069276 8.940695778392183E-06
v 18.7499980926513672 -37.4999872446069276 8.940695778392183E-06
v 18.7499980926513672 -37.50000065565066624 75.00000131130126135
v 93.749990463256836 -37.50000065565066624 75.00000131130126135
v 18.7499980926513672 -37.4999872446069276 8.940695778392183E-06
v 18.7499980926513672 -149.99997580051513072 -8.94069586365731E-06
v 18.7499980926513672 -149.9999936819067728 74.99998342990960512
v 18.7499980926513672 -37.50000065565066624 75.00000131130126135
v -93.74998152256102912 -149.99995791912340336 -224.99997711181646304
v -93.74998152256102912 -37.49996936321521448 -224.99997711181640624
v -18.74998915195556032 -37.49996936321521448 -224.99997711181640624
v -18.74998915195556032 -149.99995791912340336 -224.99997711181646304
v -93.74998152256102912 -149.99997580051507392 -149.9999847412109944
v -18.74998915195556032 -149.99997580051507392 -149.9999847412109944
v -18.74998915195556032 -37.49998277425895312 -149.99998474121093744
v -93.74998152256102912 -37.49998277425895312 -149.99998474121093744
v -93.74998152256102912 -149.99995791912340336 -224.99997711181646304
v -18.74998915195556032 -149.99995791912340336 -224.99997711181646304
v -18.74998915195556032 -149.99997580051507392 -149.9999847412109944
v -93.74998152256102912 -149.99997580051507392 -149.9999847412109944
v -18.74998915195556032 -149.99995791912340336 -224.99997711181646304
v -18.74998915195556032 -37.49996936321521448 -224.99997711181640624
v -18.74998915195556032 -37.49998277425895312 -149.99998474121093744
v -18.74998915195556032 -149.99997580051507392 -149.9999847412109944
v -18.74998915195556032 -37.49996936321521448 -224.99997711181640624
v -93.74998152256102912 -37.49996936321521448 -224.99997711181640624
v -93.74998152256102912 -37.49998277425895312 -149.99998474121093744
v -18.74998915195556032 -37.49998277425895312 -149.99998474121093744
v -93.74998152256102912 -37.49996936321521448 -224.99997711181640624
v -93.74998152256102912 -149.99995791912340336 -224.99997711181646304
v -93.74998152256102912 -149.99997580051507392 -149.9999847412109944
v -93.74998152256102912 -37.49998277425895312 -149.99998474121093744
v 18.75000703334717408 -149.99995791912340336 -224.99997711181646304
v 18.75000703334717408 -37.49996936321521448 -224.99997711181640624
v 93.74999940395264272 -37.49996936321521448 -224.99997711181640624
v 93.74999940395264272 -149.99995791912340336 -224.99997711181646304
v 18.75000703334717408 -149.99997580051507392 -149.9999847412109944
v 93.74999940395264272 -149.99997580051507392 -149.9999847412109944
v 93.74999940395264272 -37.49998277425895312 -149.99998474121093744
v 18.75000703334717408 -37.49998277425895312 -149.99998474121093744
v 18.75000703334717408 -149.99995791912340336 -224.99997711181646304
v 93.74999940395264272 -149.99995791912340336 -224.99997711181646304
v 93.74999940395264272 -149.99997580051507392 -149.9999847412109944
v 18.75000703334717408 -149.99997580051507392 -149.9999847412109944
v 93.74999940395264272 -149.99995791912340336 -224.99997711181646304
v 93.74999940395264272 -37.49996936321521448 -224.99997711181640624
v 93.74999940395264272 -37.49998277425895312 -149.99998474121093744
v 93.74999940395264272 -149.99997580051507392 -149.9999847412109944
v 93.74999940395264272 -37.49996936321521448 -224.99997711181640624
v 18.75000703334717408 -37.49996936321521448 -224.99997711181640624
v 18.75000703334717408 -37.49998277425895312 -149.99998474121093744
v 93.74999940395264272 -37.49998277425895312 -149.99998474121093744
v 18.75000703334717408 -37.49996936321521448 -224.99997711181640624
v 18.75000703334717408 -149.99995791912340336 -224.99997711181646304
v 18.75000703334717408 -149.99997580051507392 -149.9999847412109944
v 18.75000703334717408 -37.49998277425895312 -149.99998474121093744
# 164 vertices

vn 0 -1 -4.440892098500626E-16
vn 0 -1 -4.440892098500626E-16
vn 0 -1 -4.440892098500626E-16
vn 0 -1 -4.440892098500626E-16
vn 0 1 4.440892098500626E-16
vn 0 1 4.440892098500626E-16
vn 0 1 4.440892098500626E-16
vn 0 1 4.440892098500626E-16
vn 0 -4.440892098500626E-16 1
vn 0 -4.440892098500626E-16 1
vn 0 -4.440892098500626E-16 1
vn 0 -4.440892098500626E-16 1
vn 1 0 0
vn 1 0 0
vn 1 0 0
vn 1 0 0
vn 0 4.440892098500626E-16 -1
vn 0 4.440892098500626E-16 -1
vn 0 4.440892098500626E-16 -1
vn 0 4.440892098500626E-16 -1
vn -1 0 0
vn -1 0 0
vn -1 0 0
vn -1 0 0
vn 0 -1 -4.440892098500626E-16
vn 0 -1 -4.440892098500626E-16
vn 0 -1 -4.440892098500626E-16
vn 0 -1 -4.440892098500626E-16
vn 0 1 4.440892098500626E-16
vn 0 1 4.440892098500626E-16
vn 0 1 4.440892098500626E-16
vn 0 1 4.440892098500626E-16
vn 0 -4.440892098500626E-16 1
vn 0 -4.440892098500626E-16 1
vn 0 -4.440892098500626E-16 1
vn 0 -4.440892098500626E-16 1
vn 1 0 0
vn 1 0 0
vn 1 0 0
vn 1 0 0
vn 0 4.440892098500626E-16 -1
vn 0 4.440892098500626E-16 -1
vn 0 4.440892098500626E-16 -1
vn 0 4.440892098500626E-16 -1
vn -1 0 0
vn -1 0 0
vn -1 0 0
vn -1 0 0
vn 0 -4.440892098500626E-16 1
vn 0 -4.440892098500626E-16 1
vn 0 -4.440892098500626E-16 1
vn 0 -4.440892098500626E-16 1
vn 0 -1 -1.1920926157316103E-07
vn 0 -1 -1.1920926157316103E-07
vn 0 -1 -1.1920926157316103E-07
vn 0 -1 -1.1920926157316103E-07
vn 1 0 0
vn 1 0 0
vn 1 0 0
vn 1 0 0
vn 0 1 4.440892098500626E-16
vn 0 1 4.440892098500626E-16
vn 0 1 4.440892098500626E-16
vn 0 1 4.440892098500626E-16
vn -1 0 0
vn -1 0 0
vn -1 0 0
vn -1 0 0
vn 0 1.5894572458208245E-07 -1
vn 0 1.5894572458208245E-07 -1
vn 0 1.5894572458208245E-07 -1
vn 0 1.5894572458208245E-07 -1
vn 0 -1.5894572458208245E-07 1
vn 0 -1.5894572458208245E-07 1
vn 0 -1.5894572458208245E-07 1
vn 0 -1.5894572458208245E-07 1
vn 0 -1 -2.384185795456517E-07
vn 0 -1 -2.384185795456517E-07
vn 0 -1 -2.384185795456517E-07
vn 0 -1 -2.384185795456517E-07
vn 1 0 0
vn 1 0 0
vn 1 0 0
vn 1 0 0
vn 0 1 1.7881393477026108E-07
vn 0 1 1.7881393477026108E-07
vn 0 1 1.7881393477026108E-07
vn 0 1 1.7881393477026108E-07
vn -1 0 0
vn -1 0 0
vn -1 0 0
vn -1 0 0
vn 0 1.5894572458208245E-07 -1
vn 0 1.5894572458208245E-07 -1
vn 0 1.5894572458208245E-07 -1
vn 0 1.5894572458208245E-07 -1
vn 0 -1.5894572458208245E-07 1
vn 0 -1.5894572458208245E-07 1
vn 0 -1.5894572458208245E-07 1
vn 0 -1.5894572458208245E-07 1
vn 0 -1 -2.384185795456517E-07
vn 0 -1 -2.384185795456517E-07
vn 0 -1 -2.384185795456517E-07
vn 0 -1 -2.384185795456517E-07
vn 1 0 0
vn 1 0 0
vn 1 0 0
vn 1 0 0
vn 0 1 1.7881393477026108E-07
vn 0 1 1.7881393477026108E-07
vn 0 1 1.7881393477026108E-07
vn 0 1 1.7881393477026108E-07
vn -1 0 0
vn -1 0 0
vn -1 0 0
vn -1 0 0
vn 0 4.440892098500626E-16 -1
vn 0 4.440892098500626E-16 -1
vn 0 4.440892098500626E-16 -1
vn 0 4.440892098500626E-16 -1
vn 0 -4.440892098500626E-16 1
vn 0 -4.440892098500626E-16 1
vn 0 -4.440892098500626E-16 1
vn 0 -4.440892098500626E-16 1
vn 0 -1 -2.384185795456517E-07
vn 0 -1 -2.384185795456517E-07
vn 0 -1 -2.384185795456517E-07
vn 0 -1 -2.384185795456517E-07
vn 1 0 0
vn 1 0 0
vn 1 0 0
vn 1 0 0
vn 0 1 1.7881393477026108E-07
vn 0 1 1.7881393477026108E-07
vn 0 1 1.7881393477026108E-07
vn 0 1 1.7881393477026108E-07
vn -1 0 0
vn -1 0 0
vn -1 0 0
vn -1 0 0
vn 0 4.440892098500626E-16 -1
vn 0 4.440892098500626E-16 -1
vn 0 4.440892098500626E-16 -1
vn 0 4.440892098500626E-16 -1
vn 0 -4.440892098500626E-16 1
vn 0 -4.440892098500626E-16 1
vn 0 -4.440892098500626E-16 1
vn 0 -4.440892098500626E-16 1
vn 0 -1 -2.384185795456517E-07
vn 0 -1 -2.384185795456517E-07
vn 0 -1 -2.384185795456517E-07
vn 0 -1 -2.384185795456517E-07
vn 1 0 0
vn 1 0 0
vn 1 0 0
vn 1 0 0
vn 0 1 1.7881393477026108E-07
vn 0 1 1.7881393477026108E-07
vn 0 1 1.7881393477026108E-07
vn 0 1 1.7881393477026108E-07
vn -1 0 0
vn -1 0 0
vn -1 0 0
vn -1 0 0
# 164 vertex normals

g Pig_02___Default_0
usemtl _2___Default
s 1
f 1//1 2//2 3//3
f 1//1 3//3 4//4
f 5//5 6//6 7//7
f 5//5 7//7 8//8
f 9//9 10//10 11//11
f 9//9 11//11 12//12
f 13//13 14//14 15//15
f 13//13 15//15 16//16
f 17//17 18//18 19//19
f 17//17 19//19 20//20
f 21//21 22//22 23//23
f 21//21 23//23 24//24
f 25//25 26//26 27//27
f 25//25 27//27 28//28
f 29//29 30//30 31//31
f 29//29 31//31 32//32
f 33//33 34//34 35//35
f 33//33 35//35 36//36
f 37//37 38//38 39//39
f 37//37 39//39 40//40
f 41//41 42//42 43//43
f 41//41 43//43 44//44
f 45//45 46//46 47//47
f 45//45 47//47 48//48
f 49//49 50//50 51//51
f 49//49 51//51 52//52
f 53//53 54//54 55//55
f 53//53 55//55 56//56
f 57//57 58//58 59//59
f 57//57 59//59 60//60
f 61//61 62//62 63//63
f 61//61 63//63 64//64
f 65//65 66//66 67//67
f 65//65 67//67 68//68
f 69//69 70//70 71//71
f 69//69 71//71 72//72
f 73//73 74//74 75//75
f 73//73 75//75 76//76
f 77//77 78//78 79//79
f 77//77 79//79 80//80
f 81//81 82//82 83//83
f 81//81 83//83 84//84
f 85//85 86//86 87//87
f 85//85 87//87 88//88
f 89//89 90//90 91//91
f 89//89 91//91 92//92
f 93//93 94//94 95//95
f 93//93 95//95 96//96
f 97//97 98//98 99//99
f 97//97 99//99 100//100
f 101//101 102//102 103//103
f 101//101 103//103 104//104
f 105//105 106//106 107//107
f 105//105 107//107 108//108
f 109//109 110//110 111//111
f 109//109 111//111 112//112
f 113//113 114//114 115//115
f 113//113 115//115 116//116
f 117//117 118//118 119//119
f 117//117 119//119 120//120
f 121//121 122//122 123//123
f 121//121 123//123 124//124
f 125//125 126//126 127//127
f 125//125 127//127 128//128
f 129//129 130//130 131//131
f 129//129 131//131 132//132
f 133//133 134//134 135//135
f 133//133 135//135 136//136
f 137//137 138//138 139//139
f 137//137 139//139 140//140
f 141//141 142//142 143//143
f 141//141 143//143 144//144
f 145//145 146//146 147//147
f 145//145 147//147 148//148
f 149//149 150//150 151//151
f 149//149 151//151 152//152
f 153//153 154//154 155//155
f 153//153 155//155 156//156
f 157//157 158//158 159//159
f 157//157 159//159 160//160
f 161//161 162//162 163//163
f 161//161 163//163 164//164
#82 polygons

